Exact Audio Copy V0.99 prebeta 5 from 4. May 2009

Archivo Log de extracciones desde 16. Abril 2011, 16:10

Elvis Perkins / Ash Wednesday

Usar unidad  : HL-DT-STDVDRAM GSA-U20N   Adapter: 2  ID: 1

Modo de Lectura : Explosivo

Corrección de Desplazamiento de Lectura         : 667
Sobreleer tanto en Lead-In como en Lead-Out     : No
Rellenar las muestras faltantes con silencios   : Sí
Eliminar silencios inicial y final              : No
Se han usado muestras nulas en los cálculos CRC : No
Interfaz usada                                  : Interfaz propio de Win32 para Windowns NT y 2000
Gestión de Gaps                                 : No detectada, pero añadida a la pista previa

Formato de Salida utilizado               : Compresor definido por el usuario
Bitrate seleccionado                      : 1024 kBit/s
Calidad                                   : Alta
Añadir Etiqueta ID3                       : No
Compresor de linea de comandos            : C:\Archivos de programa\FLAC\flac.exe
Opciones adicionales en línea de comandos : --best -T "ARTIST=%a" -T "TITLE=%t" -T "ALBUM=%g" -T "DATE=%y" -T "TRACKNUMBER=%n" -T "GENRE=%m"


TOC del CD extraido

     Pista |  Inicio  | Duración | Sector inicial | Sector final 
    -------------------------------------------------------------
        1  |  0:00.00 |  6:19.59 |          0     |     28483    
        2  |  6:19.59 |  3:10.61 |      28484     |     42794    
        3  |  9:30.45 |  5:00.43 |      42795     |     65337    
        4  | 14:31.13 |  4:25.11 |      65338     |     85223    
        5  | 18:56.24 |  3:58.63 |      85224     |    103136    
        6  | 22:55.12 |  2:59.26 |     103137     |    116587    
        7  | 25:54.38 |  6:30.38 |     116588     |    145875    
        8  | 32:25.01 |  4:44.29 |     145876     |    167204    
        9  | 37:09.30 |  4:12.36 |     167205     |    186140    
       10  | 41:21.66 |  4:10.59 |     186141     |    204949    
       11  | 45:32.50 |  5:17.59 |     204950     |    228783    


Pista  1

     Nombre de Archivo C:\downloads\01-While You Were Sleeping.wav

     Nivel Pico 98.6 %
     Copiar CRC 1ED22D77
     Extracción precisa (nivel de confianza 19)  [C68F4FE4]
     Copia OK

Pista  2

     Nombre de Archivo C:\downloads\02-All the Night Without Love.wav

     Nivel Pico 92.1 %
     Copiar CRC 2480E543
     Extracción precisa (nivel de confianza 19)  [F391F59D]
     Copia OK

Pista  3

     Nombre de Archivo C:\downloads\03-May Day!.wav

     Nivel Pico 100.0 %
     Copiar CRC 0E312495
     Extracción precisa (nivel de confianza 18)  [A09ECDBC]
     Copia OK

Pista  4

     Nombre de Archivo C:\downloads\04-Moon Woman II.wav

     Nivel Pico 100.0 %
     Copiar CRC BC3E754C
     Extracción precisa (nivel de confianza 19)  [EA039715]
     Copia OK

Pista  5

     Nombre de Archivo C:\downloads\05-It's Only Me.wav

     Nivel Pico 91.9 %
     Copiar CRC 35EF0B19
     Extracción precisa (nivel de confianza 19)  [62343D3F]
     Copia OK

Pista  6

     Nombre de Archivo C:\downloads\06-Emilie's Vietnam in the Sky.wav

     Nivel Pico 85.7 %
     Copiar CRC 6EF17603
     Extracción precisa (nivel de confianza 18)  [2DF76957]
     Copia OK

Pista  7

     Nombre de Archivo C:\downloads\07-Ash Wednesday.wav

     Nivel Pico 100.0 %
     Copiar CRC 824C06B3
     Extracción precisa (nivel de confianza 18)  [1F4237F4]
     Copia OK

Pista  8

     Nombre de Archivo C:\downloads\08-The Night & the Liquor.wav

     Nivel Pico 89.7 %
     Copiar CRC CD0E78BC
     Extracción precisa (nivel de confianza 18)  [6A0C4AE1]
     Copia OK

Pista  9

     Nombre de Archivo C:\downloads\09-It's a Sad World After All.wav

     Nivel Pico 75.8 %
     Copiar CRC AC46CA77
     Extracción precisa (nivel de confianza 18)  [C0E84538]
     Copia OK

Pista 10

     Nombre de Archivo C:\downloads\10-Sleep Sandwich.wav

     Nivel Pico 97.9 %
     Copiar CRC A4C4792C
     Extracción precisa (nivel de confianza 19)  [DDA6B6B0]
     Copia OK

Pista 11

     Nombre de Archivo C:\downloads\11-Good Friday.wav

     Nivel Pico 93.5 %
     Copiar CRC 947B1F80
     Extracción precisa (nivel de confianza 19)  [0A2CE30B]
     Copia OK


Todas las pistas extraidas de modo preciso

Sin Errores

Final del Informe
